<svg width="1920" height="241" viewBox="0 0 1920 241" fill="none" xmlns="http://www.w3.org/2000/svg">
<path fill-rule="evenodd" clip-rule="evenodd" d="M0 58.9598C0 58.9598 517.775 118.552 960 38.96C1470.87 -58.7335 1920 58.9598 1920 58.9598V238.96H0V58.9598Z" fill="#292740"/>
<path d="M339.75 185.8C343.15 185.8 346.167 186.566 348.8 188.1C351.433 189.6 353.483 191.7 354.95 194.4C356.417 197.1 357.15 200.166 357.15 203.6C357.15 207.033 356.417 210.116 354.95 212.85C353.483 215.55 351.433 217.666 348.8 219.2C346.167 220.7 343.15 221.45 339.75 221.45C336.35 221.45 333.317 220.7 330.65 219.2C328.017 217.666 325.967 215.55 324.5 212.85C323.033 210.116 322.3 207.033 322.3 203.6C322.3 200.166 323.033 197.1 324.5 194.4C325.967 191.7 328.017 189.6 330.65 188.1C333.317 186.566 336.35 185.8 339.75 185.8ZM339.75 188.1C336.717 188.1 334.067 188.733 331.8 190C329.567 191.266 327.833 193.083 326.6 195.45C325.4 197.783 324.8 200.5 324.8 203.6C324.8 206.7 325.4 209.416 326.6 211.75C327.833 214.083 329.567 215.9 331.8 217.2C334.067 218.5 336.717 219.15 339.75 219.15C342.75 219.15 345.367 218.5 347.6 217.2C349.867 215.9 351.6 214.083 352.8 211.75C354.033 209.416 354.65 206.7 354.65 203.6C354.65 200.5 354.033 197.783 352.8 195.45C351.6 193.083 349.883 191.266 347.65 190C345.417 188.733 342.783 188.1 339.75 188.1ZM339.6 192.1C337.567 192.1 335.717 192.583 334.05 193.55C332.383 194.483 331.067 195.816 330.1 197.55C329.167 199.283 328.7 201.283 328.7 203.55C328.7 205.816 329.183 207.833 330.15 209.6C331.117 211.333 332.417 212.683 334.05 213.65C335.717 214.583 337.567 215.05 339.6 215.05C342.133 215.05 344.317 214.383 346.15 213.05C347.983 211.683 349.217 209.9 349.85 207.7H344.65C344.217 208.766 343.6 209.583 342.8 210.15C342 210.716 340.933 211 339.6 211C337.833 211 336.417 210.366 335.35 209.1C334.283 207.8 333.75 205.95 333.75 203.55C333.75 201.15 334.283 199.316 335.35 198.05C336.417 196.783 337.833 196.15 339.6 196.15C340.867 196.15 341.933 196.433 342.8 197C343.7 197.566 344.317 198.383 344.65 199.45H349.85C349.217 197.116 348 195.316 346.2 194.05C344.4 192.75 342.2 192.1 339.6 192.1ZM406.141 186.25L393.091 221H386.491L373.391 186.25H379.491L389.791 215.15L400.141 186.25H406.141ZM413.808 189.8C412.775 189.8 411.908 189.45 411.208 188.75C410.508 188.05 410.158 187.183 410.158 186.15C410.158 185.116 410.508 184.25 411.208 183.55C411.908 182.85 412.775 182.5 413.808 182.5C414.808 182.5 415.658 182.85 416.358 183.55C417.058 184.25 417.408 185.116 417.408 186.15C417.408 187.183 417.058 188.05 416.358 188.75C415.658 189.45 414.808 189.8 413.808 189.8ZM416.608 193.45V221H410.908V193.45H416.608ZM437.992 193C440.158 193 442.092 193.45 443.792 194.35C445.525 195.25 446.875 196.583 447.842 198.35C448.808 200.116 449.292 202.25 449.292 204.75V221H443.642V205.6C443.642 203.133 443.025 201.25 441.792 199.95C440.558 198.616 438.875 197.95 436.742 197.95C434.608 197.95 432.908 198.616 431.642 199.95C430.408 201.25 429.792 203.133 429.792 205.6V221H424.092V193.45H429.792V196.6C430.725 195.466 431.908 194.583 433.342 193.95C434.808 193.316 436.358 193 437.992 193ZM462.263 193.45V221H456.563V193.45H462.263ZM464.563 186.05L453.513 191.5V187.3L464.563 181.2V186.05ZM467.846 207.2C467.846 204.366 468.413 201.883 469.546 199.75C470.713 197.583 472.313 195.916 474.346 194.75C476.379 193.583 478.713 193 481.346 193C484.679 193 487.429 193.8 489.596 195.4C491.796 196.966 493.279 199.216 494.046 202.15H487.896C487.396 200.783 486.596 199.716 485.496 198.95C484.396 198.183 483.013 197.8 481.346 197.8C479.013 197.8 477.146 198.633 475.746 200.3C474.379 201.933 473.696 204.233 473.696 207.2C473.696 210.166 474.379 212.483 475.746 214.15C477.146 215.816 479.013 216.65 481.346 216.65C484.646 216.65 486.829 215.2 487.896 212.3H494.046C493.246 215.1 491.746 217.333 489.546 219C487.346 220.633 484.613 221.45 481.346 221.45C478.713 221.45 476.379 220.866 474.346 219.7C472.313 218.5 470.713 216.833 469.546 214.7C468.413 212.533 467.846 210.033 467.846 207.2ZM502.627 189.8C501.593 189.8 500.727 189.45 500.027 188.75C499.327 188.05 498.977 187.183 498.977 186.15C498.977 185.116 499.327 184.25 500.027 183.55C500.727 182.85 501.593 182.5 502.627 182.5C503.627 182.5 504.477 182.85 505.177 183.55C505.877 184.25 506.227 185.116 506.227 186.15C506.227 187.183 505.877 188.05 505.177 188.75C504.477 189.45 503.627 189.8 502.627 189.8ZM505.427 193.45V221H499.727V193.45H505.427ZM537.86 193.45V221H532.16V217.75C531.26 218.883 530.077 219.783 528.61 220.45C527.177 221.083 525.643 221.4 524.01 221.4C521.843 221.4 519.893 220.95 518.16 220.05C516.46 219.15 515.11 217.816 514.11 216.05C513.143 214.283 512.66 212.15 512.66 209.65V193.45H518.31V208.8C518.31 211.266 518.927 213.166 520.16 214.5C521.393 215.8 523.077 216.45 525.21 216.45C527.343 216.45 529.027 215.8 530.26 214.5C531.527 213.166 532.16 211.266 532.16 208.8V193.45H537.86ZM555.381 221.45C553.214 221.45 551.264 221.066 549.531 220.3C547.831 219.5 546.481 218.433 545.481 217.1C544.481 215.733 543.948 214.216 543.881 212.55H549.781C549.881 213.716 550.431 214.7 551.431 215.5C552.464 216.266 553.748 216.65 555.281 216.65C556.881 216.65 558.114 216.35 558.981 215.75C559.881 215.116 560.331 214.316 560.331 213.35C560.331 212.316 559.831 211.55 558.831 211.05C557.864 210.55 556.314 210 554.181 209.4C552.114 208.833 550.431 208.283 549.131 207.75C547.831 207.216 546.698 206.4 545.731 205.3C544.798 204.2 544.331 202.75 544.331 200.95C544.331 199.483 544.764 198.15 545.631 196.95C546.498 195.716 547.731 194.75 549.331 194.05C550.964 193.35 552.831 193 554.931 193C558.064 193 560.581 193.8 562.481 195.4C564.414 196.966 565.448 199.116 565.581 201.85H559.881C559.781 200.616 559.281 199.633 558.381 198.9C557.481 198.166 556.264 197.8 554.731 197.8C553.231 197.8 552.081 198.083 551.281 198.65C550.481 199.216 550.081 199.966 550.081 200.9C550.081 201.633 550.348 202.25 550.881 202.75C551.414 203.25 552.064 203.65 552.831 203.95C553.598 204.216 554.731 204.566 556.231 205C558.231 205.533 559.864 206.083 561.131 206.65C562.431 207.183 563.548 207.983 564.481 209.05C565.414 210.116 565.898 211.533 565.931 213.3C565.931 214.866 565.498 216.266 564.631 217.5C563.764 218.733 562.531 219.7 560.931 220.4C559.364 221.1 557.514 221.45 555.381 221.45ZM613.628 221H607.928L590.778 195.05V221H585.078V186.2H590.778L607.928 212.1V186.2H613.628V221ZM646.363 206.55C646.363 207.583 646.297 208.516 646.163 209.35H625.113C625.28 211.55 626.097 213.316 627.563 214.65C629.03 215.983 630.83 216.65 632.963 216.65C636.03 216.65 638.197 215.366 639.463 212.8H645.613C644.78 215.333 643.263 217.416 641.063 219.05C638.897 220.65 636.197 221.45 632.963 221.45C630.33 221.45 627.963 220.866 625.863 219.7C623.797 218.5 622.163 216.833 620.963 214.7C619.797 212.533 619.213 210.033 619.213 207.2C619.213 204.366 619.78 201.883 620.913 199.75C622.08 197.583 623.697 195.916 625.763 194.75C627.863 193.583 630.263 193 632.963 193C635.563 193 637.88 193.566 639.913 194.7C641.947 195.833 643.53 197.433 644.663 199.5C645.797 201.533 646.363 203.883 646.363 206.55ZM640.413 204.75C640.38 202.65 639.63 200.966 638.163 199.7C636.697 198.433 634.88 197.8 632.713 197.8C630.747 197.8 629.063 198.433 627.663 199.7C626.263 200.933 625.43 202.616 625.163 204.75H640.413ZM662.623 215.9L670.423 193.45H676.473L665.973 221H659.173L648.723 193.45H654.823L662.623 215.9ZM706.031 206.55C706.031 207.583 705.965 208.516 705.831 209.35H684.781C684.948 211.55 685.765 213.316 687.231 214.65C688.698 215.983 690.498 216.65 692.631 216.65C695.698 216.65 697.865 215.366 699.131 212.8H705.281C704.448 215.333 702.931 217.416 700.731 219.05C698.565 220.65 695.865 221.45 692.631 221.45C689.998 221.45 687.631 220.866 685.531 219.7C683.465 218.5 681.831 216.833 680.631 214.7C679.465 212.533 678.881 210.033 678.881 207.2C678.881 204.366 679.448 201.883 680.581 199.75C681.748 197.583 683.365 195.916 685.431 194.75C687.531 193.583 689.931 193 692.631 193C695.231 193 697.548 193.566 699.581 194.7C701.615 195.833 703.198 197.433 704.331 199.5C705.465 201.533 706.031 203.883 706.031 206.55ZM700.081 204.75C700.048 202.65 699.298 200.966 697.831 199.7C696.365 198.433 694.548 197.8 692.381 197.8C690.415 197.8 688.731 198.433 687.331 199.7C685.931 200.933 685.098 202.616 684.831 204.75H700.081ZM721.641 221.45C719.474 221.45 717.524 221.066 715.791 220.3C714.091 219.5 712.741 218.433 711.741 217.1C710.741 215.733 710.207 214.216 710.141 212.55H716.041C716.141 213.716 716.691 214.7 717.691 215.5C718.724 216.266 720.007 216.65 721.541 216.65C723.141 216.65 724.374 216.35 725.241 215.75C726.141 215.116 726.591 214.316 726.591 213.35C726.591 212.316 726.091 211.55 725.091 211.05C724.124 210.55 722.574 210 720.441 209.4C718.374 208.833 716.691 208.283 715.391 207.75C714.091 207.216 712.957 206.4 711.991 205.3C711.057 204.2 710.591 202.75 710.591 200.95C710.591 199.483 711.024 198.15 711.891 196.95C712.757 195.716 713.991 194.75 715.591 194.05C717.224 193.35 719.091 193 721.191 193C724.324 193 726.841 193.8 728.741 195.4C730.674 196.966 731.707 199.116 731.841 201.85H726.141C726.041 200.616 725.541 199.633 724.641 198.9C723.741 198.166 722.524 197.8 720.991 197.8C719.491 197.8 718.341 198.083 717.541 198.65C716.741 199.216 716.341 199.966 716.341 200.9C716.341 201.633 716.607 202.25 717.141 202.75C717.674 203.25 718.324 203.65 719.091 203.95C719.857 204.216 720.991 204.566 722.491 205C724.491 205.533 726.124 206.083 727.391 206.65C728.691 207.183 729.807 207.983 730.741 209.05C731.674 210.116 732.157 211.533 732.191 213.3C732.191 214.866 731.757 216.266 730.891 217.5C730.024 218.733 728.791 219.7 727.191 220.4C725.624 221.1 723.774 221.45 721.641 221.45ZM749.438 203.55C749.438 200.15 750.221 197.1 751.788 194.4C753.388 191.7 755.538 189.6 758.238 188.1C760.971 186.566 763.955 185.8 767.188 185.8C770.888 185.8 774.171 186.716 777.038 188.55C779.938 190.35 782.038 192.916 783.338 196.25H776.488C775.588 194.416 774.338 193.05 772.738 192.15C771.138 191.25 769.288 190.8 767.188 190.8C764.888 190.8 762.838 191.316 761.038 192.35C759.238 193.383 757.821 194.866 756.788 196.8C755.788 198.733 755.288 200.983 755.288 203.55C755.288 206.116 755.788 208.366 756.788 210.3C757.821 212.233 759.238 213.733 761.038 214.8C762.838 215.833 764.888 216.35 767.188 216.35C769.288 216.35 771.138 215.9 772.738 215C774.338 214.1 775.588 212.733 776.488 210.9H783.338C782.038 214.233 779.938 216.8 777.038 218.6C774.171 220.4 770.888 221.3 767.188 221.3C763.921 221.3 760.938 220.55 758.238 219.05C755.538 217.516 753.388 215.4 751.788 212.7C750.221 210 749.438 206.95 749.438 203.55ZM801.96 221.45C799.36 221.45 797.01 220.866 794.91 219.7C792.81 218.5 791.16 216.833 789.96 214.7C788.76 212.533 788.16 210.033 788.16 207.2C788.16 204.4 788.776 201.916 790.01 199.75C791.243 197.583 792.926 195.916 795.06 194.75C797.193 193.583 799.576 193 802.21 193C804.843 193 807.226 193.583 809.36 194.75C811.493 195.916 813.176 197.583 814.41 199.75C815.643 201.916 816.26 204.4 816.26 207.2C816.26 210 815.626 212.483 814.36 214.65C813.093 216.816 811.36 218.5 809.16 219.7C806.993 220.866 804.593 221.45 801.96 221.45ZM801.96 216.5C803.426 216.5 804.793 216.15 806.06 215.45C807.36 214.75 808.41 213.7 809.21 212.3C810.01 210.9 810.41 209.2 810.41 207.2C810.41 205.2 810.026 203.516 809.26 202.15C808.493 200.75 807.476 199.7 806.21 199C804.943 198.3 803.576 197.95 802.11 197.95C800.643 197.95 799.276 198.3 798.01 199C796.776 199.7 795.793 200.75 795.06 202.15C794.326 203.516 793.96 205.2 793.96 207.2C793.96 210.166 794.71 212.466 796.21 214.1C797.743 215.7 799.66 216.5 801.96 216.5ZM831.895 221.45C829.728 221.45 827.778 221.066 826.045 220.3C824.345 219.5 822.995 218.433 821.995 217.1C820.995 215.733 820.461 214.216 820.395 212.55H826.295C826.395 213.716 826.945 214.7 827.945 215.5C828.978 216.266 830.261 216.65 831.795 216.65C833.395 216.65 834.628 216.35 835.495 215.75C836.395 215.116 836.845 214.316 836.845 213.35C836.845 212.316 836.345 211.55 835.345 211.05C834.378 210.55 832.828 210 830.695 209.4C828.628 208.833 826.945 208.283 825.645 207.75C824.345 207.216 823.211 206.4 822.245 205.3C821.311 204.2 820.845 202.75 820.845 200.95C820.845 199.483 821.278 198.15 822.145 196.95C823.011 195.716 824.245 194.75 825.845 194.05C827.478 193.35 829.345 193 831.445 193C834.578 193 837.095 193.8 838.995 195.4C840.928 196.966 841.961 199.116 842.095 201.85H836.395C836.295 200.616 835.795 199.633 834.895 198.9C833.995 198.166 832.778 197.8 831.245 197.8C829.745 197.8 828.595 198.083 827.795 198.65C826.995 199.216 826.595 199.966 826.595 200.9C826.595 201.633 826.861 202.25 827.395 202.75C827.928 203.25 828.578 203.65 829.345 203.95C830.111 204.216 831.245 204.566 832.745 205C834.745 205.533 836.378 206.083 837.645 206.65C838.945 207.183 840.061 207.983 840.995 209.05C841.928 210.116 842.411 211.533 842.445 213.3C842.445 214.866 842.011 216.266 841.145 217.5C840.278 218.733 839.045 219.7 837.445 220.4C835.878 221.1 834.028 221.45 831.895 221.45ZM855.254 198.1V213.35C855.254 214.383 855.487 215.133 855.954 215.6C856.454 216.033 857.287 216.25 858.454 216.25H861.954V221H857.454C854.887 221 852.92 220.4 851.554 219.2C850.187 218 849.504 216.05 849.504 213.35V198.1H846.254V193.45H849.504V186.6H855.254V193.45H861.954V198.1H855.254ZM865.307 207.1C865.307 204.333 865.874 201.883 867.007 199.75C868.174 197.616 869.74 195.966 871.707 194.8C873.707 193.6 875.907 193 878.307 193C880.474 193 882.357 193.433 883.957 194.3C885.59 195.133 886.89 196.183 887.857 197.45V193.45H893.607V221H887.857V216.9C886.89 218.2 885.574 219.283 883.907 220.15C882.24 221.016 880.34 221.45 878.207 221.45C875.84 221.45 873.674 220.85 871.707 219.65C869.74 218.416 868.174 216.716 867.007 214.55C865.874 212.35 865.307 209.866 865.307 207.1ZM887.857 207.2C887.857 205.3 887.457 203.65 886.657 202.25C885.89 200.85 884.874 199.783 883.607 199.05C882.34 198.316 880.974 197.95 879.507 197.95C878.04 197.95 876.674 198.316 875.407 199.05C874.14 199.75 873.107 200.8 872.307 202.2C871.54 203.566 871.157 205.2 871.157 207.1C871.157 209 871.54 210.666 872.307 212.1C873.107 213.533 874.14 214.633 875.407 215.4C876.707 216.133 878.074 216.5 879.507 216.5C880.974 216.5 882.34 216.133 883.607 215.4C884.874 214.666 885.89 213.6 886.657 212.2C887.457 210.766 887.857 209.1 887.857 207.2Z" fill="#F5F6FA"/>
</svg>
